<svg xmlns="http://www.w3.org/2000/svg" width="1800" height="600" viewBox="0 0 1800 600">
<rect width="1800" height="600" fill="#FFFFFF"/>
<rect x="74" y="104" width="10" height="58" rx="5" fill="#3B82F6"/>
<g font-family="Arial,Helvetica,sans-serif">
<text x="112" y="145" font-size="23" fill="#94A3B8" letter-spacing="6">INFRASTRUCTURE PORTFOLIO</text>
<text x="74" y="300" font-size="88" font-weight="700" fill="#111827">Infrastructure Lab</text>
<text x="78" y="366" font-size="31" fill="#64748B">Network · Linux · Server · Routing · Docker</text>
<text x="78" y="448" font-size="23" fill="#94A3B8">Build · Verify · Troubleshoot</text>
</g>
<g fill="none" stroke-width="5" stroke-linecap="round" stroke-linejoin="round">
<rect x="1260" y="190" width="240" height="90" rx="17" stroke="#3B82F6"/>
<rect x="1260" y="310" width="240" height="90" rx="17" stroke="#3B82F6"/>
<circle cx="1380" cy="235" r="9" fill="#3B82F6" stroke="none"/>
<circle cx="1380" cy="355" r="9" fill="#3B82F6" stroke="none"/>
<path d="M1380 280V310" stroke="#94A3B8"/>
<path d="M1260 235H1155" stroke="#8B5CF6"/>
<circle cx="1134" cy="235" r="14" stroke="#8B5CF6"/>
<path d="M1500 355H1605" stroke="#14B8A6"/>
<circle cx="1626" cy="355" r="14" stroke="#14B8A6"/>
<path d="M1380 400V480" stroke="#94A3B8" stroke-dasharray="12 12"/>
<circle cx="1380" cy="500" r="14" stroke="#F97316"/>
</g>
<g fill="#F8FAFC">
<circle cx="1510" cy="110" r="150"/>
<circle cx="1650" cy="500" r="210"/>
</g>
</svg>